<svg width="50" height="59" viewBox="0 0 50 59" fill="none" xmlns="http://www.w3.org/2000/svg">
<path fill-rule="evenodd" clip-rule="evenodd" d="M8 0C3.58172 0 0 3.58172 0 8V42C0 46.4183 3.58172 50 8 50H18L24.2106 57.9851C24.611 58.4999 25.389 58.4999 25.7894 57.9851L32 50H42C46.4183 50 50 46.4183 50 42V8C50 3.58172 46.4183 0 42 0H8Z" fill="#8C46FF"/>
<path d="M8.70482 17.4441C7.81089 17.1321 7.81089 15.8679 8.70481 15.5559L12.8766 14.0997C13.1535 14.003 13.3739 13.7897 13.4797 13.5163L15.0673 9.41145C15.397 8.55909 16.603 8.55909 16.9327 9.41145L18.5203 13.5163C18.6261 13.7897 18.8465 14.003 19.1234 14.0997L23.2952 15.5559C24.1891 15.8679 24.1891 17.1321 23.2952 17.4441L19.1234 18.9003C18.8465 18.997 18.6261 19.2102 18.5203 19.4837L16.9327 23.5885C16.603 24.4409 15.397 24.4409 15.0673 23.5885L13.4797 19.4837C13.3739 19.2102 13.1535 18.997 12.8766 18.9003L8.70482 17.4441Z" fill="white"/>
<rect opacity="0.3" x="8" y="30" width="22" height="4" rx="1" fill="white"/>
<rect opacity="0.3" x="8" y="38" width="30" height="4" rx="1" fill="white"/>
</svg>
