<svg width="80" height="89" viewBox="0 0 80 89" fill="none" xmlns="http://www.w3.org/2000/svg">
<g filter="url(#filter0_d_1_2845)">
<path fill-rule="evenodd" clip-rule="evenodd" d="M23 15C18.5817 15 15 18.5817 15 23V57C15 61.4183 18.5817 65 23 65H33L39.2106 72.9851C39.611 73.4999 40.389 73.4999 40.7894 72.9851L47 65H57C61.4183 65 65 61.4183 65 57V23C65 18.5817 61.4183 15 57 15H23Z" fill="#8C46FF"/>
</g>
<path d="M23.7048 32.4441C22.8109 32.1321 22.8109 30.8679 23.7048 30.5559L27.8766 29.0997C28.1535 29.003 28.3739 28.7897 28.4797 28.5163L30.0673 24.4115C30.397 23.5591 31.603 23.5591 31.9327 24.4115L33.5203 28.5163C33.6261 28.7897 33.8465 29.003 34.1234 29.0997L38.2952 30.5559C39.1891 30.8679 39.1891 32.1321 38.2952 32.4441L34.1234 33.9003C33.8465 33.997 33.6261 34.2102 33.5203 34.4837L31.9327 38.5885C31.603 39.4409 30.397 39.4409 30.0673 38.5885L28.4797 34.4837C28.3739 34.2103 28.1535 33.997 27.8766 33.9003L23.7048 32.4441Z" fill="white"/>
<rect opacity="0.3" x="23" y="45" width="22" height="4" rx="1" fill="white"/>
<rect opacity="0.3" x="23" y="53" width="30" height="4" rx="1" fill="white"/>
<defs>
<filter id="filter0_d_1_2845" x="0" y="0" width="80" height="88.3712" filterUnits="userSpaceOnUse" color-interpolation-filters="sRGB">
<feFlood flood-opacity="0" result="BackgroundImageFix"/>
<feColorMatrix in="SourceAlpha" type="matrix" values="0 0 0 0 0 0 0 0 0 0 0 0 0 0 0 0 0 0 127 0" result="hardAlpha"/>
<feOffset/>
<feGaussianBlur stdDeviation="7.5"/>
<feComposite in2="hardAlpha" operator="out"/>
<feColorMatrix type="matrix" values="0 0 0 0 0 0 0 0 0 0 0 0 0 0 0 0 0 0 0.17 0"/>
<feBlend mode="normal" in2="BackgroundImageFix" result="effect1_dropShadow_1_2845"/>
<feBlend mode="normal" in="SourceGraphic" in2="effect1_dropShadow_1_2845" result="shape"/>
</filter>
</defs>
</svg>
