<svg width="22" height="22" viewBox="0 0 22 22" fill="none" xmlns="http://www.w3.org/2000/svg">
<path d="M19.9472 9.48958C19.9472 15.7485 10.9999 21.4384 10.9999 21.4384C10.9999 21.4384 2.05249 15.7485 2.05249 9.48958C2.05249 4.46167 6.05836 0.385742 10.9999 0.385742C15.9414 0.385742 19.9472 4.46167 19.9472 9.48958Z" fill="#302E35"/>
<path d="M6.73288 9.89296C6.21232 9.70169 6.21232 8.96546 6.73288 8.77419L9.18552 7.87302C9.34967 7.8127 9.47905 7.68333 9.53937 7.51917L10.4405 5.06653C10.6318 4.54597 11.368 4.54598 11.5593 5.06653L12.4605 7.51917C12.5208 7.68333 12.6502 7.8127 12.8143 7.87302L15.267 8.77419C15.7875 8.96546 15.7875 9.70169 15.267 9.89296L12.8143 10.7941C12.6502 10.8544 12.5208 10.9838 12.4605 11.148L11.5593 13.6006C11.368 14.1212 10.6318 14.1212 10.4405 13.6006L9.53937 11.148C9.47905 10.9838 9.34967 10.8544 9.18552 10.7941L6.73288 9.89296Z" fill="white"/>
</svg>
