<svg width="60" height="60" viewBox="0 0 60 60" fill="none" xmlns="http://www.w3.org/2000/svg">
<circle cx="30" cy="30" r="30" fill="#F6F1FF"/>
<path d="M40 36C38.9857 36.6081 37.5278 37.1131 35.7725 37.4641C34.0173 37.8152 32.0265 38 30 38C27.9736 38 25.9828 37.8152 24.2276 37.4642C22.4723 37.1131 21.0143 36.6082 20 36.0001" stroke="#8C46FF" stroke-width="3.36161" stroke-linecap="square" stroke-linejoin="round"/>
<path d="M22 30C24.2091 30 26 28.2091 26 26C26 23.7909 24.2091 22 22 22C19.7909 22 18 23.7909 18 26C18 28.2091 19.7909 30 22 30Z" fill="#8C46FF"/>
<path d="M32.7059 26.1268C32.1226 25.9125 32.1226 25.0875 32.7059 24.8732L35.4635 23.86C35.6474 23.7924 35.7924 23.6474 35.86 23.4635L36.8732 20.7059C37.0875 20.1226 37.9125 20.1226 38.1268 20.7059L39.14 23.4635C39.2076 23.6474 39.3526 23.7924 39.5365 23.86L42.2941 24.8732C42.8774 25.0875 42.8774 25.9125 42.2941 26.1268L39.5365 27.14C39.3526 27.2076 39.2076 27.3526 39.14 27.5365L38.1268 30.2941C37.9125 30.8774 37.0875 30.8774 36.8732 30.2941L35.86 27.5365C35.7924 27.3526 35.6474 27.2076 35.4635 27.14L32.7059 26.1268Z" fill="#8C46FF"/>
</svg>
