<svg width="119" height="119" viewBox="0 0 119 119" fill="none" xmlns="http://www.w3.org/2000/svg">
<circle cx="60" cy="57" r="36" fill="#F6F1FF"/>
<path d="M71.9231 65.3845C70.7294 64.5893 69.0135 63.9289 66.9477 63.4699C64.8819 63.0108 62.5389 62.7691 60.1539 62.7691C57.769 62.7691 55.426 63.0108 53.3602 63.4698C51.2943 63.9289 49.5784 64.5892 48.3846 65.3844" stroke="#8C46FF" stroke-width="3.92308" stroke-linecap="square" stroke-linejoin="round"/>
<path d="M50.8769 57.3824C53.6674 56.6347 55.3991 54.0492 54.7449 51.6076C54.0906 49.166 51.2982 47.7928 48.5077 48.5405C45.7173 49.2882 43.9856 51.8736 44.6398 54.3153C45.294 56.7569 48.0865 58.1301 50.8769 57.3824Z" fill="#8C46FF"/>
<path d="M64.5779 53.6526C64.4086 53.5913 64.2623 53.4793 64.1589 53.3319C64.0555 53.1845 64 53.0088 64 52.8287C64 52.6487 64.0555 52.473 64.1589 52.3255C64.2623 52.1781 64.4086 52.0662 64.5779 52.0049L68.1741 50.6972C68.2946 50.6542 68.404 50.585 68.4945 50.4945C68.585 50.4041 68.6542 50.2946 68.6972 50.1741L70.0049 46.578C70.0662 46.4086 70.1781 46.2623 70.3255 46.1589C70.4729 46.0555 70.6486 46 70.8287 46C71.0088 46 71.1845 46.0555 71.3319 46.1589C71.4793 46.2623 71.5913 46.4086 71.6526 46.578L72.9603 50.1741C73.0032 50.2946 73.0724 50.4041 73.1629 50.4945C73.2534 50.585 73.3628 50.6542 73.4833 50.6972L77.0795 52.0049C77.2488 52.0662 77.3951 52.1781 77.4985 52.3255C77.602 52.473 77.6574 52.6487 77.6574 52.8287C77.6574 53.0088 77.602 53.1845 77.4985 53.3319C77.3951 53.4793 77.2488 53.5913 77.0795 53.6526L73.4833 54.9603C73.3628 55.0032 73.2534 55.0725 73.1629 55.1629C73.0724 55.2534 73.0032 55.3628 72.9603 55.4833L71.6526 59.0795C71.5913 59.2488 71.4793 59.3951 71.3319 59.4986C71.1845 59.602 71.0088 59.6574 70.8287 59.6574C70.6486 59.6574 70.4729 59.602 70.3255 59.4986C70.1781 59.3951 70.0662 59.2488 70.0049 59.0795L68.6972 55.4833C68.6542 55.3628 68.585 55.2534 68.4945 55.1629C68.404 55.0725 68.2946 55.0032 68.1741 54.9603L64.5779 53.6526Z" fill="#8C46FF"/>
<path d="M18.3076 44.97C18.3076 51.1088 15.3803 53.6153 11.7692 53.6153C8.15808 53.6153 5.23071 51.1088 5.23071 44.97C5.23071 38.8311 10.8351 31.3845 11.7692 31.3845C12.7032 31.3845 18.3076 38.8311 18.3076 44.97Z" fill="#82818D"/>
<path opacity="0.5" d="M115.077 77.6624C115.077 83.8012 112.15 86.3077 108.538 86.3077C104.927 86.3077 102 83.8012 102 77.6624C102 71.5235 107.604 64.0769 108.538 64.0769C109.473 64.0769 115.077 71.5235 115.077 77.6624Z" fill="#82818D"/>
<path opacity="0.3" d="M27.4616 27.8974C27.4616 32.2307 25.4124 33.9999 22.8847 33.9999C20.3569 33.9999 18.3077 32.2307 18.3077 27.8974C18.3077 23.564 22.2308 18.3076 22.8847 18.3076C23.5385 18.3076 27.4616 23.564 27.4616 27.8974Z" fill="#82818D"/>
<path d="M62.6648 5.0463L61.1943 10.5342C61.0577 11.0441 61.0685 11.4688 61.2268 11.8085C61.394 12.1505 61.7192 12.3862 62.2022 12.5156C62.6853 12.6451 63.0847 12.6035 63.4005 12.3909C63.7277 12.1718 63.9584 11.8117 64.0926 11.3108L65.5631 5.82289L68.193 6.52757L66.7225 12.0155C66.49 12.8832 66.1077 13.5765 65.5756 14.0954C65.0458 14.6054 64.4214 14.9319 63.7024 15.0748C62.9948 15.2112 62.2563 15.1763 61.487 14.9701C60.7177 14.764 60.0697 14.4274 59.5429 13.9603C59.0275 13.4866 58.6768 12.8989 58.4909 12.1971C58.314 11.4978 58.343 10.7098 58.5779 9.83312L60.0483 4.34521L62.6648 5.0463Z" fill="#5E5C69"/>
<path d="M78.574 11.3081C79.5222 11.5622 80.1879 12.0474 80.5712 12.7637C80.9635 13.4824 81.0266 14.3382 80.7606 15.3311L79.5849 19.7188L76.955 19.0141L78.0372 14.9753C78.145 14.5728 78.1171 14.2297 77.9534 13.9462C77.7897 13.6626 77.5155 13.4693 77.1309 13.3663C76.7462 13.2632 76.4121 13.2935 76.1286 13.4572C75.845 13.6209 75.6493 13.9041 75.5414 14.3066L74.4593 18.3454L71.8294 17.6407L72.9115 13.6019C73.0194 13.1994 72.9915 12.8563 72.8278 12.5728C72.673 12.2916 72.4033 12.0995 72.0187 11.9965C71.6251 11.891 71.2865 11.9201 71.0029 12.0838C70.7194 12.2475 70.5237 12.5307 70.4158 12.9332L69.3336 16.972L66.7037 16.2673L68.7207 8.73986L71.3506 9.44454L71.0846 10.4375C71.4034 10.1778 71.7714 10.0031 72.1885 9.91353C72.6169 9.81741 73.0726 9.83406 73.5557 9.96349C74.1103 10.1121 74.5699 10.3647 74.9346 10.7213C75.3082 11.0802 75.5615 11.5124 75.6945 12.0179C76.0731 11.6783 76.5152 11.442 77.0206 11.309C77.5284 11.167 78.0462 11.1667 78.574 11.3081Z" fill="#5E5C69"/>
<path d="M92.4934 15.0378C93.4416 15.2919 94.1074 15.7771 94.4907 16.4934C94.883 17.2121 94.9461 18.0679 94.68 19.0608L93.5044 23.4485L90.8745 22.7438L91.9566 18.705C92.0645 18.3025 92.0366 17.9595 91.8729 17.6759C91.7092 17.3923 91.435 17.199 91.0503 17.096C90.6657 16.9929 90.3316 17.0232 90.048 17.1869C89.7645 17.3506 89.5688 17.6338 89.4609 18.0363L88.3787 22.0751L85.7488 21.3704L86.831 17.3316C86.9389 16.9291 86.9109 16.586 86.7472 16.3025C86.5925 16.0213 86.3228 15.8292 85.9381 15.7262C85.5445 15.6207 85.206 15.6498 84.9224 15.8135C84.6389 15.9772 84.4432 16.2604 84.3353 16.6629L83.2531 20.7017L80.6232 19.997L82.6402 12.4696L85.2701 13.1743L85.004 14.1672C85.3229 13.9075 85.6909 13.7328 86.1079 13.6432C86.5364 13.5471 86.9921 13.5638 87.4752 13.6932C88.0298 13.8418 88.4894 14.0944 88.8541 14.451C89.2277 14.8099 89.481 15.2421 89.614 15.7476C89.9926 15.408 90.4346 15.1717 90.94 15.0387C91.4479 14.8967 91.9657 14.8964 92.4934 15.0378Z" fill="#5E5C69"/>
<path d="M95.7886 24.1756C95.3234 24.051 94.9813 23.8251 94.7622 23.4979C94.5544 23.1642 94.5032 22.8005 94.6087 22.4069C94.7141 22.0133 94.9403 21.724 95.2871 21.5389C95.6428 21.3562 96.0533 21.3271 96.5184 21.4518C96.9747 21.574 97.3067 21.802 97.5145 22.1357C97.7312 22.4718 97.7868 22.8367 97.6814 23.2303C97.5783 23.6149 97.3489 23.8986 96.9931 24.0813C96.6463 24.2664 96.2448 24.2978 95.7886 24.1756Z" fill="#5E5C69"/>
<path d="M99.4219 25.1491C98.9568 25.0245 98.6146 24.7986 98.3955 24.4714C98.1877 24.1377 98.1365 23.7741 98.242 23.3805C98.3474 22.9869 98.5736 22.6975 98.9204 22.5124C99.2761 22.3297 99.6866 22.3007 100.152 22.4253C100.608 22.5476 100.94 22.7755 101.148 23.1093C101.364 23.4454 101.42 23.8102 101.315 24.2038C101.212 24.5885 100.982 24.8721 100.626 25.0548C100.28 25.24 99.8781 25.2714 99.4219 25.1491Z" fill="#5E5C69"/>
</svg>
