<svg width="17" height="17" viewBox="0 0 17 17" fill="none" xmlns="http://www.w3.org/2000/svg">
<path d="M8.5 16C12.6421 16 16 12.6421 16 8.5C16 4.35786 12.6421 1 8.5 1C4.35786 1 1 4.35786 1 8.5C1 12.6421 4.35786 16 8.5 16Z" fill="#EADDFF"/>
<path d="M11.3348 10.8667C10.9643 10.7659 10.5627 10.6966 10.1467 10.6617C9.07572 10.5605 7.97634 10.5605 6.90535 10.6617C6.48931 10.6966 6.0878 10.7659 5.71722 10.8667" stroke="#8C46FF" stroke-width="0.943758" stroke-linecap="square" stroke-linejoin="round"/>
<path d="M6.29021 8.31321C6.51242 8.31321 6.72964 8.24731 6.9144 8.12386C7.09916 8.0004 7.24317 7.82493 7.3282 7.61964C7.41324 7.41434 7.43549 7.18844 7.39214 6.9705C7.34879 6.75255 7.24179 6.55236 7.08466 6.39523C6.92753 6.23811 6.72734 6.1311 6.5094 6.08775C6.29146 6.0444 6.06555 6.06665 5.86026 6.15169C5.65496 6.23672 5.47949 6.38073 5.35603 6.56549C5.23258 6.75025 5.16669 6.96747 5.16669 7.18968C5.16669 7.48766 5.28506 7.77343 5.49576 7.98413C5.70646 8.19483 5.99223 8.31321 6.29021 8.31321Z" fill="#8C46FF"/>
<path d="M9.29845 7.22622C9.26208 7.21306 9.23066 7.18901 9.20844 7.15734C9.18623 7.12568 9.17432 7.08794 9.17432 7.04927C9.17432 7.01059 9.18623 6.97285 9.20844 6.94119C9.23066 6.90953 9.26208 6.88548 9.29845 6.87231L10.0709 6.59143C10.0968 6.5822 10.1203 6.56733 10.1397 6.5479C10.1591 6.52847 10.174 6.50496 10.1832 6.47908L10.4641 5.70666C10.4773 5.67029 10.5013 5.63886 10.533 5.61665C10.5646 5.59444 10.6024 5.58252 10.6411 5.58252C10.6797 5.58252 10.7175 5.59444 10.7491 5.61665C10.7808 5.63886 10.8049 5.67029 10.818 5.70666L11.0989 6.47908C11.1081 6.50496 11.123 6.52847 11.1424 6.5479C11.1619 6.56733 11.1854 6.5822 11.2113 6.59143L11.9837 6.87231C12.02 6.88548 12.0515 6.90953 12.0737 6.94119C12.0959 6.97285 12.1078 7.01059 12.1078 7.04927C12.1078 7.08794 12.0959 7.12568 12.0737 7.15734C12.0515 7.18901 12.02 7.21306 11.9837 7.22622L11.2113 7.5071C11.1854 7.51633 11.1619 7.5312 11.1424 7.55063C11.123 7.57006 11.1081 7.59357 11.0989 7.61945L10.818 8.39188C10.8049 8.42824 10.7808 8.45967 10.7491 8.48188C10.7175 8.5041 10.6797 8.51601 10.6411 8.51601C10.6024 8.51601 10.5646 8.5041 10.533 8.48188C10.5013 8.45967 10.4773 8.42824 10.4641 8.39188L10.1832 7.61945C10.174 7.59357 10.1591 7.57006 10.1397 7.55063C10.1203 7.5312 10.0968 7.51633 10.0709 7.5071L9.29845 7.22622Z" fill="#8C46FF"/>
</svg>
