<svg width="21" height="22" viewBox="0 0 21 22" fill="none" xmlns="http://www.w3.org/2000/svg">
<path d="M9.5 19.375C13.8492 19.375 17.375 15.8492 17.375 11.5C17.375 7.15076 13.8492 3.625 9.5 3.625C5.15076 3.625 1.625 7.15076 1.625 11.5C1.625 15.8492 5.15076 19.375 9.5 19.375Z" stroke="#82818D" stroke-linecap="round" stroke-linejoin="round"/>
<path d="M12.9108 13.4683C12.5648 14.0666 12.0676 14.5634 11.4689 14.9088C10.8702 15.2542 10.1912 15.4361 9.50008 15.4361C8.80892 15.4361 8.12992 15.2543 7.53125 14.9089C6.93258 14.5635 6.43531 14.0667 6.08936 13.4683" stroke="#82818D" stroke-linecap="square" stroke-linejoin="round"/>
<path d="M7.54688 10.8438C8.09053 10.8438 8.53125 10.403 8.53125 9.85938C8.53125 9.31572 8.09053 8.875 7.54688 8.875C7.00322 8.875 6.5625 9.31572 6.5625 9.85938C6.5625 10.403 7.00322 10.8438 7.54688 10.8438Z" fill="#82818D"/>
<path d="M11.4531 10.8438C11.9968 10.8438 12.4375 10.403 12.4375 9.85938C12.4375 9.31572 11.9968 8.875 11.4531 8.875C10.9095 8.875 10.4688 9.31572 10.4688 9.85938C10.4688 10.403 10.9095 10.8438 11.4531 10.8438Z" fill="#82818D"/>
<mask id="path-5-outside-1_18_4393" maskUnits="userSpaceOnUse" x="10.049" y="0.04879" width="11" height="11" fill="black">
<rect fill="white" x="10.049" y="0.04879" width="11" height="11"/>
<path fill-rule="evenodd" clip-rule="evenodd" d="M15.9828 4.98266V2.04879H14.9828V4.98266H12.049V5.98266H14.9828V8.91654H15.9828V5.98266H18.9167V4.98266H15.9828Z"/>
</mask>
<path fill-rule="evenodd" clip-rule="evenodd" d="M15.9828 4.98266V2.04879H14.9828V4.98266H12.049V5.98266H14.9828V8.91654H15.9828V5.98266H18.9167V4.98266H15.9828Z" fill="#82818D"/>
<path d="M15.9828 2.04879H17.4828C17.4828 1.22036 16.8113 0.54879 15.9828 0.54879V2.04879ZM15.9828 4.98266H14.4828C14.4828 5.81109 15.1544 6.48266 15.9828 6.48266V4.98266ZM14.9828 2.04879V0.54879C14.1544 0.54879 13.4828 1.22036 13.4828 2.04879L14.9828 2.04879ZM14.9828 4.98266V6.48266C15.8113 6.48266 16.4828 5.81109 16.4828 4.98266H14.9828ZM12.049 4.98266V3.48266C11.2205 3.48266 10.549 4.15424 10.549 4.98266H12.049ZM12.049 5.98266H10.549C10.549 6.81109 11.2205 7.48266 12.049 7.48266V5.98266ZM14.9828 5.98266H16.4828C16.4828 5.15424 15.8113 4.48266 14.9828 4.48266V5.98266ZM14.9828 8.91654H13.4828C13.4828 9.74496 14.1544 10.4165 14.9828 10.4165V8.91654ZM15.9828 8.91654V10.4165C16.8113 10.4165 17.4828 9.74496 17.4828 8.91654H15.9828ZM15.9828 5.98266V4.48266C15.1544 4.48266 14.4828 5.15424 14.4828 5.98266H15.9828ZM18.9167 5.98266V7.48266C19.7451 7.48266 20.4167 6.81109 20.4167 5.98266H18.9167ZM18.9167 4.98266H20.4167C20.4167 4.15424 19.7451 3.48266 18.9167 3.48266V4.98266ZM14.4828 2.04879V4.98266H17.4828V2.04879H14.4828ZM14.9828 3.54879H15.9828V0.54879H14.9828V3.54879ZM16.4828 4.98266V2.04879H13.4828V4.98266H16.4828ZM12.049 6.48266H14.9828V3.48266H12.049V6.48266ZM13.549 5.98266V4.98266H10.549V5.98266H13.549ZM14.9828 4.48266H12.049V7.48266H14.9828V4.48266ZM16.4828 8.91654V5.98266H13.4828V8.91654H16.4828ZM15.9828 7.41654H14.9828V10.4165H15.9828V7.41654ZM14.4828 5.98266V8.91654H17.4828V5.98266H14.4828ZM18.9167 4.48266H15.9828V7.48266H18.9167V4.48266ZM17.4167 4.98266V5.98266H20.4167V4.98266H17.4167ZM15.9828 6.48266H18.9167V3.48266H15.9828V6.48266Z" fill="white" mask="url(#path-5-outside-1_18_4393)"/>
</svg>
