<svg width="22" height="22" viewBox="0 0 22 22" fill="none" xmlns="http://www.w3.org/2000/svg">
<rect x="0.5" y="0.5" width="21" height="21" rx="3.5" fill="white" stroke="#AFAEB6"/>
<path d="M4.11765 7.41066C3.7355 7.27024 3.7355 6.72976 4.11765 6.58934L5.73523 5.995C5.85574 5.95072 5.95072 5.85574 5.995 5.73523L6.58934 4.11765C6.72976 3.7355 7.27024 3.7355 7.41066 4.11765L8.005 5.73523C8.04928 5.85574 8.14426 5.95072 8.26477 5.995L9.88235 6.58934C10.2645 6.72976 10.2645 7.27024 9.88235 7.41066L8.26477 8.005C8.14426 8.04928 8.04928 8.14426 8.005 8.26477L7.41066 9.88235C7.27024 10.2645 6.72976 10.2645 6.58934 9.88235L5.995 8.26477C5.95072 8.14426 5.85574 8.04928 5.73523 8.005L4.11765 7.41066Z" fill="#AFAEB6"/>
<rect opacity="0.3" x="4" y="12.5" width="9" height="2" rx="0.4375" fill="#AFAEB6"/>
<rect opacity="0.3" x="4" y="16.5" width="13" height="2" rx="0.4375" fill="#AFAEB6"/>
</svg>
