<svg width="17" height="17" viewBox="0 0 17 17" fill="none" xmlns="http://www.w3.org/2000/svg">
<path d="M8.5 16C12.6421 16 16 12.6421 16 8.5C16 4.35786 12.6421 1 8.5 1C4.35786 1 1 4.35786 1 8.5C1 12.6421 4.35786 16 8.5 16Z" fill="#EADDFF"/>
<path d="M11.3348 10.5859C10.9642 10.6867 10.5627 10.756 10.1467 10.791C9.07569 10.8921 7.97631 10.8921 6.90532 10.791C6.48928 10.756 6.08777 10.6867 5.71719 10.5859" stroke="#8C46FF" stroke-width="0.943758" stroke-linecap="square" stroke-linejoin="round"/>
<path d="M6.29018 8.31321C6.51239 8.31321 6.72961 8.24731 6.91437 8.12386C7.09913 8.0004 7.24314 7.82493 7.32817 7.61964C7.41321 7.41434 7.43546 7.18844 7.39211 6.9705C7.34876 6.75255 7.24176 6.55236 7.08463 6.39523C6.9275 6.23811 6.72731 6.1311 6.50937 6.08775C6.29143 6.0444 6.06552 6.06665 5.86023 6.15169C5.65493 6.23672 5.47946 6.38073 5.356 6.56549C5.23255 6.75025 5.16666 6.96747 5.16666 7.18968C5.16666 7.48766 5.28503 7.77343 5.49573 7.98413C5.70643 8.19483 5.9922 8.31321 6.29018 8.31321Z" fill="#8C46FF"/>
<path d="M9.29842 7.22622C9.26205 7.21306 9.23063 7.18901 9.20841 7.15734C9.1862 7.12568 9.17429 7.08794 9.17429 7.04927C9.17429 7.01059 9.1862 6.97285 9.20841 6.94119C9.23063 6.90953 9.26205 6.88548 9.29842 6.87231L10.0708 6.59143C10.0967 6.5822 10.1202 6.56733 10.1397 6.5479C10.1591 6.52847 10.174 6.50496 10.1832 6.47908L10.4641 5.70666C10.4772 5.67029 10.5013 5.63886 10.533 5.61665C10.5646 5.59444 10.6024 5.58252 10.641 5.58252C10.6797 5.58252 10.7174 5.59444 10.7491 5.61665C10.7808 5.63886 10.8048 5.67029 10.818 5.70666L11.0989 6.47908C11.1081 6.50496 11.123 6.52847 11.1424 6.5479C11.1618 6.56733 11.1853 6.5822 11.2112 6.59143L11.9836 6.87231C12.02 6.88548 12.0514 6.90953 12.0737 6.94119C12.0959 6.97285 12.1078 7.01059 12.1078 7.04927C12.1078 7.08794 12.0959 7.12568 12.0737 7.15734C12.0514 7.18901 12.02 7.21306 11.9836 7.22622L11.2112 7.5071C11.1853 7.51633 11.1618 7.5312 11.1424 7.55063C11.123 7.57006 11.1081 7.59357 11.0989 7.61945L10.818 8.39188C10.8048 8.42824 10.7808 8.45967 10.7491 8.48188C10.7174 8.5041 10.6797 8.51601 10.641 8.51601C10.6024 8.51601 10.5646 8.5041 10.533 8.48188C10.5013 8.45967 10.4772 8.42824 10.4641 8.39188L10.1832 7.61945C10.174 7.59357 10.1591 7.57006 10.1397 7.55063C10.1202 7.5312 10.0967 7.51633 10.0708 7.5071L9.29842 7.22622Z" fill="#8C46FF"/>
</svg>
