<svg width="119" height="119" viewBox="0 0 119 119" fill="none" xmlns="http://www.w3.org/2000/svg">
<path d="M10.4667 21.2962C10.2252 21.0651 9.93676 20.9152 9.60142 20.8466C9.27593 20.7753 8.91604 20.7925 8.52174 20.8982C7.79228 21.0936 7.27901 21.4847 6.98192 22.0714C6.69469 22.6555 6.65804 23.3468 6.87199 24.1453C7.11235 25.0423 7.51771 25.668 8.08808 26.0223C8.66567 26.3641 9.38327 26.4201 10.2409 26.1903C11.2562 25.9182 11.8579 25.2657 12.046 24.2328L9.13309 25.0133L8.57446 22.9284L13.9862 21.4783L14.739 24.2877C14.6602 24.9005 14.4637 25.5078 14.1495 26.1097C13.8452 26.7089 13.4002 27.2561 12.8144 27.7511C12.226 28.2363 11.503 28.5938 10.6454 28.8236C9.60046 29.1036 8.61442 29.1301 7.68725 28.9031C6.76729 28.6636 5.97854 28.204 5.32101 27.5244C4.67069 26.8323 4.20686 25.9688 3.92952 24.9337C3.65483 23.9085 3.62737 22.9386 3.84715 22.0239C4.07415 21.0968 4.52745 20.3044 5.20705 19.6469C5.88401 18.9795 6.74494 18.5058 7.78983 18.2258C9.10088 17.8745 10.2697 17.8994 11.2964 18.3005C12.323 18.7016 13.0864 19.4215 13.5866 20.4602L10.4667 21.2962Z" fill="#5E5C69"/>
<path d="M21.6075 25.918C20.6316 26.1795 19.6738 26.1931 18.7341 25.9589C17.7918 25.7148 16.9708 25.2534 16.2712 24.5745C15.5789 23.8831 15.0953 23.0248 14.8206 21.9996C14.5459 20.9744 14.5369 19.9943 14.7934 19.0592C15.0572 18.1116 15.5374 17.3015 16.2341 16.6288C16.9308 15.9561 17.7671 15.489 18.743 15.2275C19.7287 14.9634 20.6865 14.9498 21.6163 15.1866C22.556 15.4208 23.372 15.8836 24.0644 16.575C24.7542 17.2566 25.2364 18.1099 25.5111 19.1351C25.7858 20.1603 25.7962 21.1454 25.5422 22.0903C25.2857 23.0254 24.8104 23.8342 24.1163 24.5168C23.4197 25.1894 22.5834 25.6565 21.6075 25.918ZM20.8864 23.2269C21.6257 23.0288 22.1426 22.6315 22.437 22.0349C22.7413 21.4356 22.7852 20.7318 22.5686 19.9235C22.3467 19.0955 21.9556 18.503 21.395 18.1461C20.8417 17.7766 20.1954 17.691 19.4561 17.8891C18.707 18.0898 18.1851 18.4885 17.8907 19.0851C17.5936 19.6718 17.556 20.3792 17.7779 21.2072C17.9971 22.0254 18.3834 22.6192 18.9367 22.9886C19.4873 23.3482 20.1372 23.4276 20.8864 23.2269Z" fill="#5E5C69"/>
<path d="M32.9502 22.8787C31.9743 23.1402 31.0165 23.1539 30.0768 22.9196C29.1345 22.6756 28.3135 22.2141 27.6139 21.5352C26.9215 20.8438 26.438 19.9855 26.1633 18.9603C25.8886 17.9352 25.8795 16.955 26.1361 16.0199C26.3999 15.0723 26.8801 14.2622 27.5768 13.5895C28.2735 12.9168 29.1098 12.4498 30.0857 12.1883C31.0714 11.9241 32.0292 11.9105 32.959 12.1474C33.8987 12.3816 34.7147 12.8444 35.4071 13.5358C36.0968 14.2173 36.5791 15.0707 36.8538 16.0958C37.1285 17.121 37.1388 18.1061 36.8849 19.051C36.6283 19.9861 36.153 20.795 35.459 21.4775C34.7623 22.1502 33.9261 22.6172 32.9502 22.8787ZM32.2291 20.1876C32.9684 19.9895 33.4853 19.5922 33.7797 18.9956C34.084 18.3964 34.1279 17.6926 33.9113 16.8843C33.6894 16.0562 33.2982 15.4638 32.7377 15.1068C32.1844 14.7374 31.5381 14.6517 30.7988 14.8498C30.0496 15.0505 29.5278 15.4492 29.2334 16.0458C28.9363 16.6325 28.8987 17.3399 29.1205 18.1679C29.3398 18.9861 29.726 19.5799 30.2793 19.9494C30.83 20.309 31.4799 20.3884 32.2291 20.1876Z" fill="#5E5C69"/>
<path d="M40.5995 9.54541C41.6937 9.25222 42.7093 9.21781 43.6464 9.44217C44.5906 9.65403 45.3902 10.0948 46.0451 10.7646C46.7 11.4343 47.1634 12.2768 47.4355 13.2922C47.7049 14.2976 47.7185 15.2554 47.4764 16.1655C47.2441 17.073 46.7747 17.8644 46.0682 18.5397C45.3689 19.2025 44.477 19.6792 43.3927 19.9697L39.2673 21.0751L36.4742 10.6508L40.5995 9.54541ZM42.4855 17.4711C43.3332 17.244 43.9366 16.834 44.2954 16.2413C44.6543 15.6486 44.7202 14.9283 44.493 14.0806C44.2632 13.223 43.8447 12.6273 43.2376 12.2934C42.6278 11.9496 41.899 11.8914 41.0513 12.1185L40.0458 12.3879L41.48 17.7405L42.4855 17.4711Z" fill="#5E5C69"/>
<path d="M50.7829 6.24626L52.3327 13.3904L49.8634 14.0521L47.6334 7.09016L50.7829 6.24626ZM52.1831 17.7411C51.6705 17.8785 51.2195 17.8514 50.8301 17.6599C50.4479 17.4559 50.1987 17.1371 50.0825 16.7034C49.9663 16.2696 50.0227 15.8689 50.2517 15.5011C50.4905 15.1307 50.8662 14.8769 51.3788 14.7395C51.8815 14.6048 52.324 14.6395 52.7062 14.8434C53.0982 15.0448 53.3523 15.3623 53.4686 15.7961C53.5821 16.2199 53.5195 16.6171 53.2807 16.9875C53.0517 17.3552 52.6858 17.6064 52.1831 17.7411Z" fill="#5E5C69"/>
<path d="M107.964 75.9603C108.142 76.116 108.386 76.1814 108.618 76.1354L108.621 76.1349L108.626 76.1338L108.646 76.1297C108.663 76.1262 108.687 76.1211 108.718 76.1144C108.78 76.1011 108.869 76.0812 108.981 76.0546C109.206 76.0012 109.526 75.9204 109.912 75.8092C110.684 75.5872 111.729 75.2419 112.817 74.7485C114.945 73.7839 117.457 72.1547 118.146 69.583C118.791 67.1792 117.258 64.9934 115.208 64.4441C113.742 64.0513 112.264 64.4304 111.167 65.3147C110.659 64.0003 109.569 62.933 108.103 62.5403C106.053 61.9909 103.633 63.1178 102.989 65.5216C102.3 68.0933 103.661 70.7604 105.021 72.6595C105.717 73.6311 106.45 74.4528 107.007 75.0306C107.286 75.3202 107.522 75.5501 107.69 75.7087C107.775 75.788 107.842 75.8497 107.888 75.8921C107.912 75.9134 107.93 75.9298 107.943 75.9413L107.958 75.9547L107.963 75.9586L107.964 75.9603Z" fill="#B384FF"/>
<path d="M13.0161 51.932C13.3114 51.9907 13.6226 51.9073 13.849 51.7089L13.8514 51.7067L13.8571 51.7018L13.8764 51.6847C13.8928 51.67 13.9161 51.6491 13.9459 51.622C14.0055 51.568 14.0909 51.4894 14.1981 51.3884C14.4122 51.1862 14.7137 50.8933 15.0693 50.5243C15.779 49.7881 16.7122 48.7412 17.599 47.5032C19.3321 45.0836 21.0666 41.6852 20.1886 38.4085C19.368 35.3457 16.2848 33.9099 13.6725 34.6098C11.8047 35.1103 10.4154 36.4701 9.7682 38.1448C8.37037 37.0181 6.48727 36.5351 4.61951 37.0356C2.00718 37.7355 0.0549893 40.5206 0.875659 43.5834C1.75365 46.8601 4.955 48.9359 7.66566 50.1648C9.05265 50.7936 10.3843 51.2336 11.3671 51.5163C11.8595 51.658 12.267 51.761 12.5536 51.829C12.6969 51.8629 12.8101 51.8883 12.8888 51.9053C12.9281 51.9139 12.9588 51.9203 12.9803 51.9248L13.0056 51.9299L13.013 51.9314L13.0161 51.932Z" fill="#B384FF"/>
<circle cx="60.0031" cy="56.9954" r="36" fill="#F6F1FF"/>
<path d="M73.2308 64.0769C71.5055 64.5462 69.6361 64.8688 67.6992 65.0315C62.713 65.5023 57.5946 65.5023 52.6084 65.0315C50.6715 64.8688 48.8022 64.5462 47.0769 64.0769" stroke="#8C46FF" stroke-width="4.39385" stroke-linecap="square" stroke-linejoin="round"/>
<path d="M49.7447 57.9308C50.7792 57.9308 51.7905 57.624 52.6507 57.0492C53.5109 56.4745 54.1814 55.6575 54.5773 54.7017C54.9732 53.7459 55.0768 52.6942 54.8749 51.6795C54.6731 50.6649 54.1749 49.7328 53.4434 49.0013C52.7119 48.2698 51.7798 47.7716 50.7652 47.5697C49.7505 47.3679 48.6988 47.4715 47.743 47.8674C46.7872 48.2633 45.9702 48.9338 45.3955 49.794C44.8207 50.6541 44.5139 51.6655 44.5139 52.7C44.5139 54.0873 45.065 55.4178 46.046 56.3987C47.0269 57.3797 48.3574 57.9308 49.7447 57.9308Z" fill="#8C46FF"/>
<path d="M63.7499 52.8701C63.5806 52.8088 63.4343 52.6968 63.3309 52.5494C63.2275 52.402 63.172 52.2263 63.172 52.0463C63.172 51.8662 63.2275 51.6905 63.3309 51.5431C63.4343 51.3957 63.5806 51.2837 63.7499 51.2224L67.3461 49.9147C67.4666 49.8717 67.576 49.8025 67.6665 49.7121C67.757 49.6216 67.8262 49.5121 67.8692 49.3916L69.1769 45.7955C69.2382 45.6262 69.3501 45.4798 69.4975 45.3764C69.6449 45.273 69.8206 45.2175 70.0007 45.2175C70.1808 45.2175 70.3565 45.273 70.5039 45.3764C70.6513 45.4798 70.7633 45.6262 70.8246 45.7955L72.1323 49.3916C72.1752 49.5121 72.2444 49.6216 72.3349 49.7121C72.4254 49.8025 72.5348 49.8717 72.6553 49.9147L76.2515 51.2224C76.4208 51.2837 76.5671 51.3957 76.6705 51.5431C76.774 51.6905 76.8294 51.8662 76.8294 52.0463C76.8294 52.2263 76.774 52.402 76.6705 52.5494C76.5671 52.6968 76.4208 52.8088 76.2515 52.8701L72.6553 54.1778C72.5348 54.2208 72.4254 54.29 72.3349 54.3804C72.2444 54.4709 72.1752 54.5804 72.1323 54.7009L70.8246 58.297C70.7633 58.4663 70.6513 58.6127 70.5039 58.7161C70.3565 58.8195 70.1808 58.875 70.0007 58.875C69.8206 58.875 69.6449 58.8195 69.4975 58.7161C69.3501 58.6127 69.2382 58.4663 69.1769 58.297L67.8692 54.7009C67.8262 54.5804 67.757 54.4709 67.6665 54.3804C67.576 54.29 67.4666 54.2208 67.3461 54.1778L63.7499 52.8701Z" fill="#8C46FF"/>
<path d="M26.006 72.9823C25.5652 70.6184 25.5652 68.1932 26.006 65.8293C26.1873 64.5615 26.8019 63.3957 27.7453 62.5296C28.6887 61.6636 29.9028 61.1509 31.1813 61.0785C32.4599 61.0061 33.7241 61.3785 34.7593 62.1325C35.7944 62.8864 36.5366 63.9755 36.8599 65.2146C38.6907 70.9031 37.2391 74.5123 37.2391 74.5123C37.2391 74.5123 45.4384 85.4446 37.6707 94.1277C31.1976 101.359 20.2522 97.1485 17.9376 88.897C14.6161 77.167 20.7884 74.1593 26.006 72.9823Z" fill="#F6F1FF"/>
<path opacity="0.5" d="M25.7576 67.647C25.7576 67.0716 25.8884 66.457 25.993 65.8293C26.1743 64.5615 26.7889 63.3957 27.7323 62.5296C28.6757 61.6636 29.8897 61.1509 31.1683 61.0785C32.4469 61.0061 33.7111 61.3785 34.7463 62.1325C35.7814 62.8864 36.5236 63.9755 36.8469 65.2146C38.6776 70.9031 37.2261 74.5123 37.2261 74.5123C37.2261 74.5123 41.3976 78.5139 41.0838 86.8046" stroke="#B384FF" stroke-width="1.96154" stroke-miterlimit="10" stroke-linecap="round"/>
<path d="M27.2614 73.7015C27.2614 73.7015 31.7075 72.2761 33.6429 74.8653C34.2504 75.6061 34.6132 76.5171 34.6811 77.4727C34.749 78.4283 34.5188 79.3815 34.0221 80.2007" stroke="#D4BBFF" stroke-width="1.96154" stroke-miterlimit="10" stroke-linecap="round"/>
<path d="M28.2814 79.6908C28.2814 79.6908 32.7275 78.2654 34.676 80.8546C35.2815 81.5968 35.6419 82.5085 35.7074 83.4641C35.773 84.4197 35.5406 85.3721 35.0421 86.19" stroke="#D4BBFF" stroke-width="1.96154" stroke-miterlimit="10" stroke-linecap="round"/>
<path d="M29.3145 85.7193C29.3145 85.7193 33.7607 84.2939 35.6961 86.8832C36.3001 87.6256 36.6605 88.5362 36.7284 89.491C36.7963 90.4457 36.5682 91.3981 36.0753 92.2185" stroke="#D4BBFF" stroke-width="1.96154" stroke-miterlimit="10" stroke-linecap="round"/>
<path d="M94.3997 72.9823C94.8406 70.6184 94.8406 68.1932 94.3997 65.8293C94.2184 64.5615 93.6039 63.3957 92.6605 62.5296C91.7171 61.6636 90.503 61.1509 89.2244 61.0785C87.9458 61.0061 86.6816 61.3785 85.6465 62.1325C84.6114 62.8864 83.8691 63.9755 83.5459 65.2146C81.7282 70.9031 83.1666 74.5123 83.1666 74.5123C83.1666 74.5123 74.9674 85.4446 82.7351 94.1277C89.2736 101.359 100.167 97.1485 102.481 88.897C105.79 77.167 99.6305 74.1593 94.3997 72.9823Z" fill="#F6F1FF"/>
<path opacity="0.5" d="M94.6614 67.647C94.6614 67.0716 94.5306 66.457 94.4129 65.8293C94.2316 64.5615 93.6171 63.3957 92.6737 62.5296C91.7303 61.6636 90.5162 61.1509 89.2376 61.0785C87.959 61.0061 86.6948 61.3785 85.6597 62.1325C84.6245 62.8864 83.8823 63.9755 83.5591 65.2146C81.7414 70.9031 83.1798 74.5123 83.1798 74.5123C83.1798 74.5123 79.0083 78.5139 79.2568 86.8046" stroke="#B384FF" stroke-width="1.96154" stroke-miterlimit="10" stroke-linecap="round"/>
<path d="M93.1575 73.7015C93.1575 73.7015 88.7114 72.2761 86.7629 74.8653C86.1574 75.6075 85.797 76.5192 85.7314 77.4748C85.6659 78.4304 85.8983 79.3828 86.3967 80.2007" stroke="#D4BBFF" stroke-width="1.96154" stroke-miterlimit="10" stroke-linecap="round"/>
<path d="M92.1245 79.6908C92.1245 79.6908 87.6784 78.2654 85.743 80.8546C85.1355 81.5954 84.7728 82.5064 84.7048 83.462C84.6369 84.4176 84.8671 85.3707 85.3638 86.19" stroke="#D4BBFF" stroke-width="1.96154" stroke-miterlimit="10" stroke-linecap="round"/>
<path d="M91.1044 85.7193C91.1044 85.7193 86.6582 84.2939 84.7098 86.8832C84.1043 87.6253 83.7439 88.537 83.6783 89.4926C83.6127 90.4482 83.8452 91.4006 84.3436 92.2185" stroke="#D4BBFF" stroke-width="1.96154" stroke-miterlimit="10" stroke-linecap="round"/>
</svg>
