<svg width="22" height="24" viewBox="0 0 22 24" fill="none" xmlns="http://www.w3.org/2000/svg">
<path d="M19.9472 10.4896C19.9472 16.7485 10.9999 22.4384 10.9999 22.4384C10.9999 22.4384 2.05249 16.7485 2.05249 10.4896C2.05249 5.46167 6.05836 1.38574 10.9999 1.38574C15.9414 1.38574 19.9472 5.46167 19.9472 10.4896Z" stroke="#AFAEB6"/>
<path d="M6.73288 10.893C6.21232 10.7017 6.21232 9.96546 6.73288 9.77419L9.18552 8.87302C9.34967 8.8127 9.47905 8.68333 9.53937 8.51917L10.4405 6.06653C10.6318 5.54597 11.368 5.54598 11.5593 6.06653L12.4605 8.51917C12.5208 8.68333 12.6502 8.8127 12.8143 8.87302L15.267 9.77419C15.7875 9.96546 15.7875 10.7017 15.267 10.893L12.8143 11.7941C12.6502 11.8544 12.5208 11.9838 12.4605 12.148L11.5593 14.6006C11.368 15.1212 10.6318 15.1212 10.4405 14.6006L9.53937 12.148C9.47905 11.9838 9.34967 11.8544 9.18552 11.7941L6.73288 10.893Z" fill="#AFAEB6"/>
</svg>
