<svg width="335" height="300" viewBox="0 0 335 300" fill="none" xmlns="http://www.w3.org/2000/svg">
<ellipse cx="218.608" cy="247.122" rx="42.4189" ry="9.87838" fill="#EADDFF"/>
<circle cx="121.5" cy="87.5" r="46.5" fill="#F6F1FF"/>
<circle cx="199" cy="94" r="18" fill="#F6F1FF"/>
<circle cx="144.5" cy="155.5" r="9.5" fill="#EADDFF"/>
<path fill-rule="evenodd" clip-rule="evenodd" d="M185.998 128C177.371 128 170.378 134.993 170.378 143.619V210.002C170.378 218.629 177.371 225.622 185.998 225.622L205.522 225.622L217.648 241.212C218.43 242.217 219.949 242.217 220.73 241.212L232.856 225.622L252.381 225.622C261.007 225.622 268 218.629 268 210.002V143.619C268 134.993 261.007 128 252.381 128H185.998Z" fill="#8C46FF"/>
<path d="M187.374 162.058C185.629 161.449 185.629 158.981 187.374 158.372L195.519 155.529C196.06 155.34 196.49 154.924 196.697 154.39L199.796 146.375C200.44 144.711 202.795 144.711 203.438 146.375L206.538 154.39C206.744 154.924 207.175 155.34 207.716 155.529L215.861 158.372C217.606 158.981 217.606 161.449 215.861 162.058L207.716 164.902C207.175 165.09 206.744 165.507 206.538 166.041L203.438 174.055C202.795 175.719 200.44 175.719 199.796 174.055L196.697 166.041C196.49 165.507 196.06 165.09 195.519 164.902L187.374 162.058Z" fill="white"/>
<rect opacity="0.3" x="185.998" y="186.573" width="42.9535" height="7.80973" rx="1.95243" fill="white"/>
<rect opacity="0.3" x="185.998" y="202.192" width="58.573" height="7.80973" rx="1.95243" fill="white"/>
<circle cx="273.091" cy="121.091" r="37" transform="rotate(-15 273.091 121.091)" fill="#F6F1FF" stroke="white" stroke-width="2"/>
<path d="M287.701 124.507C286.156 125.407 284.433 126.203 282.605 126.861C277.91 128.606 272.966 129.931 268.028 130.767C266.115 131.111 264.226 131.283 262.438 131.277" stroke="#8C46FF" stroke-width="4.39385" stroke-linecap="square" stroke-linejoin="round"/>
<path d="M263.424 124.649C264.423 124.382 265.321 123.824 266.003 123.046C266.685 122.268 267.121 121.305 267.256 120.28C267.391 119.254 267.219 118.211 266.762 117.283C266.304 116.355 265.582 115.584 264.686 115.067C263.79 114.55 262.76 114.31 261.728 114.377C260.696 114.445 259.707 114.817 258.886 115.447C258.065 116.077 257.45 116.936 257.117 117.915C256.785 118.895 256.75 119.951 257.018 120.951C257.377 122.291 258.253 123.433 259.455 124.127C260.656 124.82 262.084 125.008 263.424 124.649Z" fill="#8C46FF"/>
<path d="M275.642 116.136C275.463 116.121 275.293 116.051 275.155 115.935C275.016 115.819 274.917 115.664 274.871 115.49C274.824 115.316 274.832 115.132 274.894 114.963C274.956 114.794 275.068 114.648 275.216 114.545L278.351 112.351C278.456 112.278 278.544 112.183 278.608 112.072C278.672 111.961 278.711 111.838 278.721 111.71L279.053 107.898C279.069 107.719 279.139 107.548 279.255 107.41C279.37 107.272 279.525 107.173 279.699 107.127C279.873 107.08 280.057 107.088 280.227 107.15C280.396 107.212 280.542 107.324 280.645 107.472L282.839 110.607C282.911 110.712 283.007 110.8 283.117 110.864C283.228 110.928 283.352 110.966 283.479 110.977L287.291 111.309C287.471 111.324 287.641 111.395 287.779 111.51C287.917 111.626 288.016 111.781 288.063 111.955C288.109 112.129 288.101 112.313 288.04 112.482C287.978 112.652 287.866 112.798 287.718 112.901L284.583 115.095C284.477 115.167 284.39 115.262 284.326 115.373C284.262 115.484 284.223 115.608 284.213 115.735L283.88 119.547C283.865 119.727 283.795 119.897 283.679 120.035C283.564 120.173 283.408 120.272 283.234 120.319C283.06 120.365 282.876 120.357 282.707 120.295C282.538 120.234 282.392 120.121 282.289 119.974L280.095 116.839C280.022 116.733 279.927 116.645 279.816 116.581C279.706 116.518 279.582 116.479 279.454 116.469L275.642 116.136Z" fill="#8C46FF"/>
<ellipse cx="112.581" cy="108.684" rx="8.46677" ry="6.45087" transform="rotate(-30 112.581 108.684)" fill="#8C46FF"/>
<ellipse cx="131.93" cy="97.3987" rx="8.46677" ry="6.45087" transform="rotate(-30 131.93 97.3987)" fill="#8C46FF"/>
<rect x="106.362" y="68.2186" width="3.64842" height="39.5713" transform="rotate(-15 106.362 68.2186)" fill="#8C46FF"/>
<rect x="125.71" y="56.9328" width="3.64842" height="39.5713" transform="rotate(-15 125.71 56.9328)" fill="#8C46FF"/>
<rect x="108.194" y="71.41" width="3.64842" height="23.0567" transform="rotate(-120 108.194 71.41)" fill="#8C46FF"/>
<rect x="110.674" y="80.6664" width="3.64842" height="23.0567" transform="rotate(-120 110.674 80.6664)" fill="#8C46FF"/>
</svg>
