<svg width="133" height="45" viewBox="0 0 133 45" fill="none" xmlns="http://www.w3.org/2000/svg">
<path d="M37.9493 14.1173V31.8H34.4027V24.276H26.828V31.8H23.2813V14.1173H26.828V21.388H34.4027V14.1173H37.9493ZM42.4788 16.0933C41.854 16.0933 41.3304 15.8991 40.9082 15.5107C40.5028 15.1053 40.3002 14.6071 40.3002 14.016C40.3002 13.4249 40.5028 12.9351 40.9082 12.5467C41.3304 12.1413 41.854 11.9387 42.4788 11.9387C43.1037 11.9387 43.6188 12.1413 44.0242 12.5467C44.4464 12.9351 44.6575 13.4249 44.6575 14.016C44.6575 14.6071 44.4464 15.1053 44.0242 15.5107C43.6188 15.8991 43.1037 16.0933 42.4788 16.0933ZM44.2268 17.7653V31.8H40.6802V17.7653H44.2268ZM52.4683 17.5373C53.5154 17.5373 54.4358 17.7484 55.2296 18.1707C56.0234 18.576 56.6483 19.108 57.1043 19.7667V17.7653H60.6763V31.9013C60.6763 33.2018 60.4145 34.3587 59.891 35.372C59.3674 36.4022 58.5821 37.2129 57.535 37.804C56.4878 38.412 55.2212 38.716 53.735 38.716C51.7421 38.716 50.1038 38.2515 48.8203 37.3227C47.5536 36.3938 46.8358 35.1271 46.667 33.5227H50.1883C50.3741 34.1644 50.771 34.6711 51.379 35.0427C52.0038 35.4311 52.7554 35.6253 53.6336 35.6253C54.6638 35.6253 55.4998 35.3129 56.1416 34.688C56.7834 34.08 57.1043 33.1511 57.1043 31.9013V29.7227C56.6483 30.3813 56.015 30.9302 55.2043 31.3693C54.4105 31.8084 53.4985 32.028 52.4683 32.028C51.2861 32.028 50.2052 31.724 49.2256 31.116C48.2461 30.508 47.4692 29.6551 46.895 28.5573C46.3376 27.4427 46.059 26.1675 46.059 24.732C46.059 23.3133 46.3376 22.0551 46.895 20.9573C47.4692 19.8595 48.2376 19.0151 49.2003 18.424C50.1798 17.8329 51.2692 17.5373 52.4683 17.5373ZM57.1043 24.7827C57.1043 23.9213 56.9354 23.1867 56.5976 22.5787C56.2598 21.9538 55.8038 21.4809 55.2296 21.16C54.6554 20.8222 54.039 20.6533 53.3803 20.6533C52.7216 20.6533 52.1136 20.8138 51.5563 21.1347C50.999 21.4555 50.543 21.9284 50.1883 22.5533C49.8505 23.1613 49.6816 23.8875 49.6816 24.732C49.6816 25.5764 49.8505 26.3195 50.1883 26.9613C50.543 27.5862 50.999 28.0675 51.5563 28.4053C52.1305 28.7431 52.7385 28.912 53.3803 28.912C54.039 28.912 54.6554 28.7515 55.2296 28.4307C55.8038 28.0929 56.2598 27.62 56.5976 27.012C56.9354 26.3871 57.1043 25.644 57.1043 24.7827ZM71.2842 17.5627C72.3482 17.5627 73.294 17.7991 74.1216 18.272C74.9491 18.728 75.5909 19.412 76.0469 20.324C76.5198 21.2191 76.7562 22.3 76.7562 23.5667V31.8H73.2096V24.048C73.2096 22.9333 72.9309 22.0804 72.3736 21.4893C71.8162 20.8813 71.0562 20.5773 70.0936 20.5773C69.114 20.5773 68.3371 20.8813 67.7629 21.4893C67.2056 22.0804 66.9269 22.9333 66.9269 24.048V31.8H63.3802V13.0533H66.9269V19.5133C67.3829 18.9053 67.9909 18.4324 68.7509 18.0947C69.5109 17.74 70.3553 17.5627 71.2842 17.5627ZM82.9156 13.0533V31.8H79.3689V13.0533H82.9156ZM87.4584 16.0933C86.8335 16.0933 86.3099 15.8991 85.8877 15.5107C85.4824 15.1053 85.2797 14.6071 85.2797 14.016C85.2797 13.4249 85.4824 12.9351 85.8877 12.5467C86.3099 12.1413 86.8335 11.9387 87.4584 11.9387C88.0833 11.9387 88.5984 12.1413 89.0037 12.5467C89.4259 12.9351 89.637 13.4249 89.637 14.016C89.637 14.6071 89.4259 15.1053 89.0037 15.5107C88.5984 15.8991 88.0833 16.0933 87.4584 16.0933ZM89.2064 17.7653V31.8H85.6597V17.7653H89.2064ZM97.4478 17.5373C98.4949 17.5373 99.4154 17.7484 100.209 18.1707C101.003 18.576 101.628 19.108 102.084 19.7667V17.7653H105.656V31.9013C105.656 33.2018 105.394 34.3587 104.87 35.372C104.347 36.4022 103.562 37.2129 102.514 37.804C101.467 38.412 100.201 38.716 98.7145 38.716C96.7216 38.716 95.0834 38.2515 93.7998 37.3227C92.5332 36.3938 91.8154 35.1271 91.6465 33.5227H95.1678C95.3536 34.1644 95.7505 34.6711 96.3585 35.0427C96.9834 35.4311 97.7349 35.6253 98.6132 35.6253C99.6434 35.6253 100.479 35.3129 101.121 34.688C101.763 34.08 102.084 33.1511 102.084 31.9013V29.7227C101.628 30.3813 100.994 30.9302 100.184 31.3693C99.39 31.8084 98.478 32.028 97.4478 32.028C96.2656 32.028 95.1847 31.724 94.2052 31.116C93.2256 30.508 92.4487 29.6551 91.8745 28.5573C91.3172 27.4427 91.0385 26.1675 91.0385 24.732C91.0385 23.3133 91.3172 22.0551 91.8745 20.9573C92.4487 19.8595 93.2172 19.0151 94.1798 18.424C95.1594 17.8329 96.2487 17.5373 97.4478 17.5373ZM102.084 24.7827C102.084 23.9213 101.915 23.1867 101.577 22.5787C101.239 21.9538 100.783 21.4809 100.209 21.16C99.6349 20.8222 99.0185 20.6533 98.3598 20.6533C97.7012 20.6533 97.0932 20.8138 96.5358 21.1347C95.9785 21.4555 95.5225 21.9284 95.1678 22.5533C94.83 23.1613 94.6612 23.8875 94.6612 24.732C94.6612 25.5764 94.83 26.3195 95.1678 26.9613C95.5225 27.5862 95.9785 28.0675 96.5358 28.4053C97.11 28.7431 97.718 28.912 98.3598 28.912C99.0185 28.912 99.6349 28.7515 100.209 28.4307C100.783 28.0929 101.239 27.62 101.577 27.012C101.915 26.3871 102.084 25.644 102.084 24.7827ZM116.264 17.5627C117.328 17.5627 118.274 17.7991 119.101 18.272C119.929 18.728 120.57 19.412 121.026 20.324C121.499 21.2191 121.736 22.3 121.736 23.5667V31.8H118.189V24.048C118.189 22.9333 117.91 22.0804 117.353 21.4893C116.796 20.8813 116.036 20.5773 115.073 20.5773C114.094 20.5773 113.317 20.8813 112.742 21.4893C112.185 22.0804 111.906 22.9333 111.906 24.048V31.8H108.36V13.0533H111.906V19.5133C112.362 18.9053 112.97 18.4324 113.73 18.0947C114.49 17.74 115.335 17.5627 116.264 17.5627ZM128.478 20.6787V27.468C128.478 27.9409 128.588 28.2871 128.807 28.5067C129.044 28.7093 129.432 28.8107 129.972 28.8107H131.619V31.8H129.39C126.4 31.8 124.906 30.3475 124.906 27.4427V20.6787H123.234V17.7653H124.906V14.2947H128.478V17.7653H131.619V20.6787H128.478Z" fill="black"/>
<path d="M3.23586 23.989C2.12945 23.5824 2.12945 22.0176 3.23586 21.6111L7.78681 19.9389C8.13572 19.8107 8.4107 19.5357 8.5389 19.1868L10.2111 14.6359C10.6176 13.5295 12.1824 13.5295 12.589 14.6359L14.2611 19.1868C14.3893 19.5357 14.6643 19.8107 15.0132 19.9389L19.5641 21.6111C20.6706 22.0176 20.6706 23.5824 19.5641 23.989L15.0132 25.6611C14.6643 25.7893 14.3893 26.0643 14.2611 26.4132L12.589 30.9641C12.1824 32.0706 10.6176 32.0706 10.2111 30.9641L8.5389 26.4132C8.4107 26.0643 8.13572 25.7893 7.78681 25.6611L3.23586 23.989Z" fill="#8C46FF"/>
</svg>
