<svg width="16" height="16" viewBox="0 0 16 16" fill="none" xmlns="http://www.w3.org/2000/svg">
<path d="M1.55463 8.93864C0.681142 8.6177 0.681143 7.3823 1.55463 7.06135L5.14748 5.74124C5.42293 5.64003 5.64003 5.42293 5.74124 5.14748L7.06136 1.55463C7.3823 0.681139 8.6177 0.681139 8.93865 1.55463L10.2588 5.14748C10.36 5.42293 10.5771 5.64003 10.8525 5.74124L14.4454 7.06135C15.3189 7.3823 15.3189 8.6177 14.4454 8.93864L10.8525 10.2588C10.5771 10.36 10.36 10.5771 10.2588 10.8525L8.93865 14.4454C8.6177 15.3189 7.3823 15.3189 7.06136 14.4454L5.74124 10.8525C5.64003 10.5771 5.42293 10.36 5.14748 10.2588L1.55463 8.93864Z" fill="#8C46FF"/>
</svg>
