<svg width="100" height="100" viewBox="0 0 100 100" fill="none" xmlns="http://www.w3.org/2000/svg">
<rect width="100" height="100" rx="18.1818" fill="#E2E1E6"/>
<path d="M18.7166 33.6848C16.9795 33.0466 16.9795 30.5898 18.7166 29.9516L26.0692 27.25C26.617 27.0487 27.0487 26.617 27.25 26.0692L29.9515 18.7166C30.5898 16.9795 33.0466 16.9795 33.6848 18.7166L36.3864 26.0692C36.5876 26.617 37.0194 27.0487 37.5671 27.25L44.9198 29.9516C46.6568 30.5898 46.6568 33.0466 44.9198 33.6848L37.5671 36.3864C37.0194 36.5876 36.5876 37.0194 36.3864 37.5671L33.6848 44.9198C33.0466 46.6568 30.5898 46.6568 29.9515 44.9198L27.25 37.5671C27.0487 37.0194 26.617 36.5876 26.0692 36.3864L18.7166 33.6848Z" fill="white"/>
<rect opacity="0.3" x="18.1818" y="56.8181" width="40.9091" height="9.09091" rx="1.98864" fill="white"/>
<rect opacity="0.3" x="18.1818" y="75" width="59.0909" height="9.09091" rx="1.98864" fill="white"/>
</svg>
