<svg width="19" height="22" viewBox="0 0 19 22" fill="none" xmlns="http://www.w3.org/2000/svg">
<path d="M18 9.64865C18 15.5946 9.5 21 9.5 21C9.5 21 1 15.5946 1 9.64865C1 4.87213 4.80558 1 9.5 1C14.1944 1 18 4.87213 18 9.64865Z" fill="#8C46FF"/>
<path d="M5.44631 10.0314C4.95178 9.84971 4.95178 9.15029 5.44631 8.96859L7.77632 8.11247C7.93226 8.05517 8.05517 7.93226 8.11247 7.77632L8.96859 5.44631C9.15029 4.95178 9.84971 4.95178 10.0314 5.44631L10.8875 7.77631C10.9448 7.93226 11.0677 8.05517 11.2237 8.11247L13.5537 8.96859C14.0482 9.15029 14.0482 9.84971 13.5537 10.0314L11.2237 10.8875C11.0677 10.9448 10.9448 11.0677 10.8875 11.2237L10.0314 13.5537C9.84971 14.0482 9.15029 14.0482 8.96859 13.5537L8.11247 11.2237C8.05517 11.0677 7.93226 10.9448 7.77632 10.8875L5.44631 10.0314Z" fill="white"/>
</svg>
