<svg width="24" height="24" viewBox="0 0 24 24" fill="none" xmlns="http://www.w3.org/2000/svg">
<path d="M9.72439 1.78049C9.82706 1.32419 10.2323 1 10.7 1H13.3C13.7677 1 14.1729 1.32419 14.2756 1.78049L15 5H9L9.72439 1.78049Z" fill="#302E35"/>
<path d="M9.72439 22.2195C9.82706 22.6758 10.2323 23 10.7 23H13.3C13.7677 23 14.1729 22.6758 14.2756 22.2195L15 19H9L9.72439 22.2195Z" fill="#302E35"/>
<path d="M22.2195 9.72439C22.6758 9.82706 23 10.2323 23 10.7L23 13.3C23 13.7677 22.6758 14.1729 22.2195 14.2756L19 15L19 9L22.2195 9.72439Z" fill="#302E35"/>
<path d="M1.78049 9.72439C1.32419 9.82706 1 10.2323 1 10.7L1 13.3C1 13.7677 1.32419 14.1729 1.78049 14.2756L5 15L5 9L1.78049 9.72439Z" fill="#302E35"/>
<path d="M20.8354 17.6171C21.0855 18.0123 21.0282 18.5281 20.6975 18.8588L18.859 20.6973C18.5283 21.028 18.0125 21.0853 17.6172 20.8353L14.8285 19.071L19.0711 14.8283L20.8354 17.6171Z" fill="#302E35"/>
<path d="M6.38281 3.1647C5.98756 2.91464 5.47178 2.97195 5.14106 3.30267L3.30258 5.14114C2.97186 5.47186 2.91455 5.98764 3.16461 6.38289L4.92893 9.17165L9.17157 4.92901L6.38281 3.1647Z" fill="#302E35"/>
<path d="M6.38293 20.8353C5.98768 21.0854 5.4719 21.0281 5.14118 20.6973L3.3027 18.8589C2.97198 18.5281 2.91467 18.0124 3.16473 17.6171L4.92905 14.8283L9.17169 19.071L6.38293 20.8353Z" fill="#302E35"/>
<path d="M20.8353 6.38244C21.0854 5.98719 21.0281 5.47141 20.6973 5.14069L18.8589 3.30221C18.5281 2.97149 18.0124 2.91419 17.6171 3.16424L14.8283 4.92856L19.071 9.1712L20.8353 6.38244Z" fill="#302E35"/>
<circle cx="12" cy="12" r="8.5" fill="white" stroke="#302E35"/>
</svg>
