<svg width="20" height="20" viewBox="0 0 20 20" fill="none" xmlns="http://www.w3.org/2000/svg">
<mask id="path-1-inside-1_11_152" fill="white">
<path d="M5.70684 17.5H1.99017C1.82589 17.5 1.66833 17.4347 1.55216 17.3186C1.43599 17.2024 1.37073 17.0449 1.37073 16.8806L1.37073 13.4205C1.37073 13.3391 1.38675 13.2586 1.41788 13.1834C1.44901 13.1083 1.49464 13.04 1.55216 12.9825L12.685 1.84809C12.8012 1.73192 12.9587 1.66666 13.123 1.66666C13.2873 1.66666 13.4449 1.73192 13.561 1.84809L17.0211 5.30817C17.1373 5.42434 17.2025 5.5819 17.2025 5.74619C17.2025 5.91047 17.1373 6.06803 17.0211 6.1842L5.70684 17.5Z"/>
</mask>
<path d="M5.70684 17.5V18.75C6.03839 18.75 6.35636 18.6183 6.59078 18.3838L5.70684 17.5ZM1.37073 13.4205H2.62073H1.37073ZM1.55216 12.9825L2.43604 13.8663L2.4361 13.8663L1.55216 12.9825ZM12.685 1.84809L11.8011 0.964203L11.8011 0.964264L12.685 1.84809ZM13.123 1.66666V2.91666V1.66666ZM13.561 1.84809L14.4449 0.964203V0.964203L13.561 1.84809ZM17.0211 5.30817L17.905 4.42429V4.42429L17.0211 5.30817ZM17.2025 5.74619H15.9525H17.2025ZM17.0211 6.1842L16.1372 5.30032L16.1372 5.30038L17.0211 6.1842ZM5.70684 16.25H1.99017V18.75H5.70684V16.25ZM1.99017 16.25C2.1574 16.25 2.31779 16.3164 2.43604 16.4347L0.668275 18.2025C1.01887 18.5531 1.49437 18.75 1.99017 18.75V16.25ZM2.43604 16.4347C2.5543 16.553 2.62073 16.7133 2.62073 16.8806H0.120728C0.120728 17.3764 0.317685 17.8519 0.668275 18.2025L2.43604 16.4347ZM2.62073 16.8806V13.4205H0.120728L0.120728 16.8806H2.62073ZM2.62073 13.4205C2.62073 13.5033 2.60442 13.5853 2.57273 13.6618L0.263031 12.7051C0.169079 12.9319 0.120728 13.175 0.120728 13.4205H2.62073ZM2.57273 13.6618C2.54104 13.7383 2.4946 13.8078 2.43604 13.8663L0.668276 12.0986C0.494678 12.2722 0.356977 12.4783 0.263031 12.7051L2.57273 13.6618ZM2.4361 13.8663L13.5689 2.73191L11.8011 0.964264L0.668215 12.0986L2.4361 13.8663ZM13.5689 2.73197C13.4506 2.85022 13.2902 2.91666 13.123 2.91666V0.416656C12.6272 0.416656 12.1517 0.613614 11.8011 0.964203L13.5689 2.73197ZM13.123 2.91666C12.9558 2.91666 12.7954 2.85022 12.6771 2.73197L14.4449 0.964203C14.0943 0.613616 13.6188 0.416656 13.123 0.416656V2.91666ZM12.6771 2.73197L16.1372 6.19206L17.905 4.42429L14.4449 0.964203L12.6771 2.73197ZM16.1372 6.19206C16.019 6.0738 15.9525 5.91342 15.9525 5.74619H18.4525C18.4525 5.25038 18.2556 4.77488 17.905 4.42429L16.1372 6.19206ZM15.9525 5.74619C15.9525 5.57896 16.019 5.41857 16.1372 5.30032L17.905 7.06808C18.2556 6.71749 18.4525 6.24199 18.4525 5.74619H15.9525ZM16.1372 5.30038L4.8229 16.6162L6.59078 18.3838L17.9051 7.06802L16.1372 5.30038Z" fill="white" mask="url(#path-1-inside-1_11_152)"/>
<path d="M10.8333 5L13.3333 7.5" stroke="white" stroke-width="1.25" stroke-linecap="square" stroke-linejoin="round"/>
<rect x="9.16669" y="15.8333" width="9.16667" height="1.66667" fill="white"/>
</svg>
